<svg width="150" height="150" viewBox="0 0 200 200" xmlns="http://www.w3.org/2000/svg">
                            <style>.v3r-body{animation:bodyBob .6s infinite alternate ease-in-out}.v3r-leg{animation:legCycle .8s infinite linear}.v3r-arm{animation:armCycle .8s infinite linear}.v3r-scarf{animation:scarfWave .4s infinite alternate ease-in-out}</style>
                            <defs><filter id="s3"><feGaussianBlur in="SourceAlpha" stdDeviation="2"></feGaussianBlur><feOffset dx="2" dy="2"></feOffset><feMerge><feMergeNode></feMergeNode><feMergeNode in="SourceGraphic"></feMergeNode></feMerge></filter></defs>
                            <g filter="url(#s3)">
                                <!-- Pale Skin (#ffe0bd), Blue Clothes -->
                                <g class="v3r-leg" style="transform-origin:90px 130px"><path d="M90 130L70 160L50 155" stroke="#37474f" stroke-width="12" fill="none" stroke-linecap="round" />
    <path d="M50 155L45 165" stroke="#263238" stroke-width="14" stroke-linecap="round" />
    </g>
                                <g class="v3r-arm" style="animation-direction:reverse;transform-origin:100px 100px"><path d="M100 100L70 110L60 100" stroke="#1565c0" stroke-width="10" fill="none" stroke-linecap="round" />
    </g>
                                <g class="v3r-body" style="transform-origin:100px 170px">
                                    <path class="v3r-scarf" style="transform-origin:105px 95px" d="M105 95Q80 95 70 85T40 90" stroke="#eceff1" stroke-width="8" fill="none" stroke-linecap="round" />
    
                                    <rect x="90" y="90" width="35" height="45" rx="5" fill="#1565c0"></rect> <!-- Blue Jacket -->
                                    <rect x="95" y="90" width="25" height="45" rx="2" fill="#cfd8dc"></rect> <!-- Grey Shirt -->
                                    <path d="M90 90L107 110L125 90" fill="#1565c0" />
    
                                    <rect x="90" y="130" width="35" height="8" fill="#263238"></rect>
                                    <g transform="translate(107, 75)"><circle cx="0" cy="0" r="18" fill="#ffe0bd"></circle><path d="M-18 -5L18 -5L22 -15L-22 -15Z" fill="#1a237e" />
    <path d="M-15 -15L-12 -35L12 -35L15 -15Z" fill="#0d47a1" />
    <rect x="-14" y="-20" width="28" height="5" fill="#fff"></rect>
  </g>
                                    <path d="M110 90L130 125" stroke="#0d47a1" stroke-width="4" />
    <rect x="115" y="120" width="25" height="20" rx="4" fill="#1976d2"></rect>
                                </g>
                                <g class="v3r-leg" style="animation-direction:reverse;transform-origin:110px 130px"><path d="M110 135L130 150L130 175" stroke="#37474f" stroke-width="12" fill="none" stroke-linecap="round" />
    <path d="M130 175L145 175" stroke="#263238" stroke-width="14" stroke-linecap="round" />
    </g>
                                <g class="v3r-arm" style="transform-origin:115px 100px"><path d="M115 100L135 110L150 95" stroke="#1565c0" stroke-width="10" fill="none" stroke-linecap="round" />
    <circle cx="150" cy="95" r="6" fill="#ffe0bd"></circle>
  </g>
                            </g>
                        </svg>