<svg width="150" height="150" viewBox="0 0 200 200" xmlns="http://www.w3.org/2000/svg">
                            <style>.v2r-body{animation:bodyBob .6s infinite alternate ease-in-out}.v2r-leg{animation:legCycle .8s infinite linear}.v2r-arm{animation:armCycle .8s infinite linear}.v2r-scarf{animation:scarfWave .4s infinite alternate ease-in-out}</style>
                            <defs><filter id="s2"><feGaussianBlur in="SourceAlpha" stdDeviation="2"></feGaussianBlur><feOffset dx="2" dy="2"></feOffset><feMerge><feMergeNode></feMergeNode><feMergeNode in="SourceGraphic"></feMergeNode></feMerge></filter></defs>
                            <g filter="url(#s2)">
                                <!-- Darker Skin (#8d5524), Green Clothes -->
                                <g class="v2r-leg" style="transform-origin:90px 130px"><path d="M90 130L70 160L50 155" stroke="#33691e" stroke-width="12" fill="none" stroke-linecap="round" />
    <path d="M50 155L45 165" stroke="#1b5e20" stroke-width="14" stroke-linecap="round" />
    </g>
                                <g class="v2r-arm" style="animation-direction:reverse;transform-origin:100px 100px"><path d="M100 100L70 110L60 100" stroke="#558b2f" stroke-width="10" fill="none" stroke-linecap="round" />
    </g>
                                <g class="v2r-body" style="transform-origin:100px 170px">
                                    <path class="v2r-scarf" style="transform-origin:105px 95px" d="M105 95Q80 95 70 85T40 90" stroke="#ffeb3b" stroke-width="8" fill="none" stroke-linecap="round" />
    
                                    <rect x="90" y="90" width="35" height="45" rx="5" fill="#558b2f"></rect> <!-- Olive Jacket -->
                                    <rect x="95" y="90" width="25" height="45" rx="2" fill="#dcedc8"></rect> <!-- Light Shirt -->
                                    <path d="M90 90L107 110L125 90" fill="#558b2f" />
    
                                    <rect x="90" y="130" width="35" height="8" fill="#1b5e20"></rect>
                                    <g transform="translate(107, 75)"><circle cx="0" cy="0" r="18" fill="#8d5524"></circle><path d="M-18 -5L18 -5L22 -15L-22 -15Z" fill="#33691e" />
    <path d="M-15 -15L-12 -35L12 -35L15 -15Z" fill="#1b5e20" />
    <rect x="-14" y="-20" width="28" height="5" fill="#000"></rect>
  </g>
                                    <path d="M110 90L130 125" stroke="#33691e" stroke-width="4" />
    <rect x="115" y="120" width="25" height="20" rx="4" fill="#2e7d32"></rect>
                                </g>
                                <g class="v2r-leg" style="animation-direction:reverse;transform-origin:110px 130px"><path d="M110 135L130 150L130 175" stroke="#33691e" stroke-width="12" fill="none" stroke-linecap="round" />
    <path d="M130 175L145 175" stroke="#1b5e20" stroke-width="14" stroke-linecap="round" />
    </g>
                                <g class="v2r-arm" style="transform-origin:115px 100px"><path d="M115 100L135 110L150 95" stroke="#558b2f" stroke-width="10" fill="none" stroke-linecap="round" />
    <circle cx="150" cy="95" r="6" fill="#8d5524"></circle>
  </g>
                            </g>
                        </svg>