<svg xmlns="http://www.w3.org/2000/svg" viewBox="-256 -256 512 512" width="512" height="512">
  <defs>
    <linearGradient id="obsidianChiselGrad" x1="0%" y1="0%" x2="100%" y2="100%">
      <stop offset="0%" style="stop-color:#4a5e6c;stop-opacity:1" /> <stop offset="25%" style="stop-color:#1a1a22;stop-opacity:1" />
      <stop offset="60%" style="stop-color:#050508;stop-opacity:1" /> <stop offset="90%" style="stop-color:#000000;stop-opacity:1" />
    </linearGradient>
    
    <linearGradient id="scratchGrad" x1="0%" y1="100%" x2="100%" y2="0%">
       <stop offset="0%" style="stop-color:#ffffff;stop-opacity:0.1" />
       <stop offset="100%" style="stop-color:#000000;stop-opacity:0.3" />
    </linearGradient>

    <radialGradient id="plasmaGrad" cx="50%" cy="50%" r="60%" fx="40%" fy="40%">
      <stop offset="0%" style="stop-color:#ffffcc;stop-opacity:1" />
      <stop offset="20%" style="stop-color:#ffbb00;stop-opacity:1" />
      <stop offset="50%" style="stop-color:#ff3300;stop-opacity:1" />
      <stop offset="85%" style="stop-color:#880000;stop-opacity:1" />
      <stop offset="100%" style="stop-color:#330000;stop-opacity:0.9" />
    </radialGradient>

    <linearGradient id="antiqueGoldGrad" x1="0%" y1="0%" x2="100%" y2="100%">
      <stop offset="0%" style="stop-color:#ffedcc;stop-opacity:1" />
      <stop offset="30%" style="stop-color:#d4af37;stop-opacity:1" />
      <stop offset="70%" style="stop-color:#755518;stop-opacity:1" />
      <stop offset="100%" style="stop-color:#4a3305;stop-opacity:1" />
    </linearGradient>

    <radialGradient id="rubyGrad" cx="30%" cy="30%" r="80%">
      <stop offset="0%" style="stop-color:#ff6666;stop-opacity:1" />
      <stop offset="60%" style="stop-color:#cc0000;stop-opacity:1" />
      <stop offset="100%" style="stop-color:#550000;stop-opacity:1" />
    </radialGradient>

    <filter id="plasmaBloom" x="-50%" y="-50%" width="200%" height="200%">
      <feGaussianBlur in="SourceGraphic" stdDeviation="6" result="blur1" />
      <feColorMatrix in="blur1" type="matrix" values="1 0 0 0 0  0 0.5 0 0 0  0 0 0 0 0  0 0 0 1 0" result="redShift"/>
      <feMerge>
        <feMergeNode in="redShift" />
        <feMergeNode in="SourceGraphic" />
      </feMerge>
    </filter>
    
    <filter id="seamGlow" x="-50%" y="-50%" width="200%" height="200%">
      <feMorphology operator="dilate" radius="1" in="SourceAlpha" result="thicken" />
      <feGaussianBlur in="thicken" stdDeviation="3" result="blurred" />
      <feFlood flood-color="#ff3300" result="glowColor" />
      <feComposite in="glowColor" in2="blurred" operator="in" result="softGlow" />
      <feMerge>
        <feMergeNode in="softGlow" />
        <feMergeNode in="SourceGraphic" />
      </feMerge>
    </filter>

    <style>
      .hover-motion { animation: professionalHover 4s ease-in-out infinite alternate; }
      .pulse-motion { animation: deepPulse 2s ease-in-out infinite alternate; }
      #wing-pivot-left, #wing-pivot-right { animation: wingFlapMain 0.1s ease-in-out infinite alternate; }
      .elytron-shell { animation: shellLag 0.1s ease-in-out infinite alternate-reverse; }

      @keyframes professionalHover { 0% { transform: translateY(-8px); } 100% { transform: translateY(8px); } }
      @keyframes deepPulse { 
          0% { filter: drop-shadow(0 0 2px #f00); opacity: 0.9; transform: scale(0.98); } 
          100% { filter: drop-shadow(0 0 15px #f00); opacity: 1; transform: scale(1.02); } 
      }
      @keyframes wingFlapMain { from { transform: rotate(-5deg); } to { transform: rotate(25deg); } }
      @keyframes shellLag { from { transform: rotate(0deg); } to { transform: rotate(-4deg); } }
    </style>
  </defs>

  <g class="hover-motion">

    <g id="body-assembly">
        
        <g fill="url(#obsidianChiselGrad)" stroke="#000" stroke-width="1.5">
             <path d="M-40 110 L-80 140 L-110 180 L-130 160 L-100 120 L-50 90 Z" />
            <path d="M-110 180 L-115 200 L-105 185 M-80 140 L-90 160 L-85 135" stroke-width="2" /> <path d="M40 110 L80 140 L110 180 L130 160 L100 120 L50 90 Z" />
             <path d="M110 180 L115 200 L105 185 M80 140 L90 160 L85 135" stroke-width="2" /> <path d="M-50 30 L-100 50 L-140 30 L-150 50 L-110 80 L-60 60 Z" />
            <path d="M50 30 L100 50 L140 30 L150 50 L110 80 L60 60 Z" />
        </g>

        <g filter="url(#seamGlow)">
            <path d="M-60 -70 L60 -70 L50 0 L70 80 L40 160 L0 200 L-40 160 L-70 80 L-50 0 Z" fill="url(#obsidianChiselGrad)" />
            
            <path d="M-50 0 L50 0 M-60 -40 L60 -35 M-30 120 L30 110 M0 200 L0 100" stroke="#000" stroke-width="2" opacity="0.3"/>
            <path d="M-20 40 L20 50 L0 180 M-50 -20 L-10 10 L-30 80" fill="none" stroke="url(#scratchGrad)" stroke-width="1"/>

            <path d="M-55 10 Q-30 30 0 20 Q30 30 55 10 M-65 90 Q-40 110 0 100 Q40 110 65 90 M0 20 L0 100" 
                  fill="none" stroke="url(#plasmaGrad)" stroke-width="2.5" stroke-linecap="round"/>
            
            <path d="M-20 140 L0 160 L20 140 M0 130 L0 150 M-10 145 L10 145" fill="none" stroke="url(#antiqueGoldGrad)" stroke-width="1.5" opacity="0.8"/>
        </g>
    </g>

    <g id="wing-pivot-right" transform-origin="70px -80px">
        <g filter="url(#plasmaBloom)" opacity="0.85">
            <path d="M70 -80 Q280 -140 240 120 Q160 200 90 140 Z" fill="url(#plasmaGrad)" />
            <path d="M75 -60 C180 -80, 200 0, 220 80 M90 -40 C150 0, 170 60, 180 120 M100 -20 C130 20, 140 60, 150 100" fill="none" stroke="#400" stroke-width="2" opacity="0.7"/>
            <path d="M75 -60 C180 -80, 200 0, 220 80" fill="none" stroke="#ffcc00" stroke-width="1.5"/>
        </g>
        <g class="elytron-shell" transform-origin="70px -80px">
             <g transform="rotate(-40, 70, -80)">
                <path d="M70 -80 Q80 60 70 200 Q140 160 160 -40 Q150 -100 70 -80 Z" fill="url(#obsidianChiselGrad)" stroke="url(#antiqueGoldGrad)" stroke-width="3"/>
                <path d="M80 -60 L100 -30 M90 50 L120 80 M130 -20 L110 10" stroke="url(#scratchGrad)" stroke-width="1" />
                <path d="M90 -50 C110 -30, 120 50, 100 150 M110 -20 C125 20, 130 80, 120 120" fill="none" stroke="url(#antiqueGoldGrad)" stroke-width="2"/>
                <path d="M160 -40 Q140 160 70 200" fill="none" stroke="#ff0000" stroke-width="3" opacity="0.7" style="mix-blend-mode: overlay;"/>
            </g>
        </g>
    </g>

    <g id="wing-pivot-left" transform-origin="-70px -80px">
        <g transform="scale(-1, 1)">
            <g filter="url(#plasmaBloom)" opacity="0.85">
                <path d="M70 -80 Q280 -140 240 120 Q160 200 90 140 Z" fill="url(#plasmaGrad)" />
                <path d="M75 -60 C180 -80, 200 0, 220 80 M90 -40 C150 0, 170 60, 180 120 M100 -20 C130 20, 140 60, 150 100" fill="none" stroke="#400" stroke-width="2" opacity="0.7"/>
                <path d="M75 -60 C180 -80, 200 0, 220 80" fill="none" stroke="#ffcc00" stroke-width="1.5"/>
            </g>
            <g class="elytron-shell" transform-origin="70px -80px">
                 <g transform="rotate(-40, 70, -80)">
                    <path d="M70 -80 Q80 60 70 200 Q140 160 160 -40 Q150 -100 70 -80 Z" fill="url(#obsidianChiselGrad)" stroke="url(#antiqueGoldGrad)" stroke-width="3"/>
                     <path d="M80 -60 L100 -30 M90 50 L120 80 M130 -20 L110 10" stroke="url(#scratchGrad)" stroke-width="1" />
                    <path d="M90 -50 C110 -30, 120 50, 100 150 M110 -20 C125 20, 130 80, 120 120" fill="none" stroke="url(#antiqueGoldGrad)" stroke-width="2"/>
                    <path d="M160 -40 Q140 160 70 200" fill="none" stroke="#ff0000" stroke-width="3" opacity="0.7" style="mix-blend-mode: overlay;"/>
                </g>
            </g>
        </g>
    </g>


    <g id="head-assembly">
        <g filter="url(#seamGlow)">
            <path d="M-70 -80 L70 -80 L90 -150 L0 -170 L-90 -150 Z" fill="url(#obsidianChiselGrad)" stroke="url(#antiqueGoldGrad)" stroke-width="3"/>
            <path d="M-30 -120 Q0 -100 30 -120 Q0 -140 -30 -120 Z M0 -110 L0 -130" fill="none" stroke="url(#antiqueGoldGrad)" stroke-width="1.5"/>
        </g>
        
        <g transform="translate(0, -150)">
            <path d="M-40 0 L40 0 L30 -40 L0 -60 L-30 -40 Z" fill="url(#obsidianChiselGrad)" stroke="#000" stroke-width="2"/>
            <path d="M-30 -40 L-60 -100 L-20 -80 L-15 -90 L-5 -70 L0 -50" fill="url(#obsidianChiselGrad)" stroke="#000"/>
            <path d="M30 -40 L60 -100 L20 -80 L15 -90 L5 -70 L0 -50" fill="url(#obsidianChiselGrad)" stroke="#000"/>
            
            <g filter="url(#plasmaBloom)">
                <path d="M-45 -35 L-25 -35 L-30 -50 L-50 -50 Z" fill="#ff0000" stroke="#ffcccc" stroke-width="1"/>
                <path d="M45 -35 L25 -35 L30 -50 L50 -50 Z" fill="#ff0000" stroke="#ffcccc" stroke-width="1"/>
            </g>
        </g>

        <g class="pulse-motion" transform="translate(0, -120)">
             <path d="M-40 -10 L-30 -30 L0 -40 L30 -30 L40 -10 L30 20 L0 35 L-30 20 Z" fill="url(#antiqueGoldGrad)" stroke="#000" stroke-width="1.5"/>
             <circle r="28" fill="url(#rubyGrad)" filter="url(#plasmaBloom)"/>
             <path d="M-20 -20 L20 20 M-20 20 L20 -20 M0 -28 L0 28 M-28 0 L28 0" stroke="#fff" stroke-width="1" opacity="0.5" style="mix-blend-mode: overlay;"/>
        </g>
    </g>

  </g>
</svg>